<?xml version="1.0" standalone="no"?>
<!DOCTYPE svg PUBLIC "-//W3C//DTD SVG 20010904//EN"
 "http://www.w3.org/TR/2001/REC-SVG-20010904/DTD/svg10.dtd">
<svg version="1.0" xmlns="http://www.w3.org/2000/svg"
 width="900.000000pt" height="429.000000pt" viewBox="0 0 900.000000 429.000000"
 preserveAspectRatio="xMidYMid meet">
<metadata>
Created by potrace 1.10, written by Peter Selinger 2001-2011
</metadata>
<g transform="translate(0.000000,429.000000) scale(0.100000,-0.100000)"
fill="#000000" stroke="none">
<path d="M1880 3920 c-60 -7 -157 -37 -166 -51 -3 -5 -11 -9 -19 -9 -50 0
-186 -137 -233 -234 -102 -211 -52 -428 148 -646 18 -19 55 -59 82 -88 27 -29
48 -58 45 -65 -3 -9 -161 -13 -698 -17 l-694 -5 -3 -289 c-2 -210 1 -292 9
-303 10 -12 144 -13 898 -11 839 3 888 4 926 22 22 10 56 26 75 34 78 37 164
114 207 187 46 78 82 204 83 288 0 77 -25 178 -62 252 -39 77 -85 134 -229
281 -48 50 -67 77 -63 88 6 14 46 16 400 16 217 0 395 -1 396 -2 2 -2 5 -264
8 -583 l5 -580 280 -3 c154 -1 290 0 303 3 l22 5 0 570 c0 361 4 571 10 575 5
3 169 6 364 5 343 0 355 0 366 19 15 29 14 523 -2 539 -9 9 -289 12 -1207 11
-658 -1 -1221 -5 -1251 -9z"/>
<path d="M4633 3920 c-15 -6 -23 -18 -23 -34 0 -14 -6 -40 -14 -58 -7 -18 -21
-60 -31 -93 -9 -33 -23 -78 -30 -100 -6 -22 -20 -67 -30 -100 -9 -33 -23 -78
-30 -100 -6 -22 -20 -67 -30 -100 -10 -33 -23 -78 -30 -100 -7 -22 -21 -67
-30 -100 -10 -33 -24 -78 -30 -100 -24 -77 -43 -140 -60 -200 -10 -33 -24 -75
-31 -93 -8 -18 -14 -42 -14 -53 0 -11 -5 -30 -12 -42 -6 -12 -15 -38 -19 -57
-7 -33 -11 -49 -39 -130 -7 -19 -16 -51 -20 -70 -4 -19 -13 -48 -18 -65 -32
-95 -34 -107 -21 -116 8 -5 148 -9 311 -9 320 0 328 1 328 53 1 12 7 33 15 47
8 14 14 35 15 48 0 12 9 41 20 62 l20 40 284 0 c215 0 286 -3 293 -12 5 -7 25
-60 43 -118 19 -58 39 -108 44 -112 6 -4 145 -8 309 -8 334 0 321 -3 295 73
-9 23 -23 69 -33 102 -10 33 -23 76 -30 95 -12 35 -25 78 -60 195 -9 33 -24
75 -31 93 -8 18 -14 41 -14 52 0 11 -6 34 -14 52 -13 32 -24 67 -61 193 -10
33 -23 76 -30 95 -13 36 -30 93 -60 195 -10 33 -23 76 -30 95 -7 19 -20 62
-30 95 -9 33 -23 75 -31 93 -8 18 -14 41 -14 52 0 11 -6 34 -14 52 -20 50 -46
134 -46 151 0 9 -10 23 -22 31 -20 14 -81 16 -473 15 -247 0 -460 -4 -472 -9z
m517 -608 c0 -16 26 -102 46 -150 8 -18 14 -41 14 -52 0 -11 6 -34 14 -52 8
-18 20 -52 27 -76 11 -37 10 -45 -2 -53 -18 -11 -239 -12 -258 0 -11 7 -11 15
-1 47 17 53 34 108 54 179 10 33 24 75 32 93 8 18 14 43 14 57 0 13 8 31 17
40 16 16 17 16 30 -1 7 -10 13 -24 13 -32z"/>
<path d="M6235 3918 c-3 -7 -4 -395 -3 -863 l3 -850 315 -3 c173 -1 325 0 338
3 22 5 22 6 22 223 0 119 5 224 10 232 7 12 50 -26 207 -181 298 -294 222
-272 929 -277 478 -3 562 -1 572 11 9 11 12 91 10 303 l-3 289 -445 5 c-456 5
-490 8 -490 45 0 8 26 31 58 52 113 75 173 148 228 282 27 64 26 274 -1 351
-57 165 -182 281 -382 358 l-68 25 -648 4 c-528 4 -648 2 -652 -9z m1104 -495
c35 -21 66 -82 57 -115 -3 -13 -16 -36 -30 -53 l-24 -30 -209 0 -208 0 -3 94
c-1 52 -1 100 2 108 4 10 47 13 195 13 162 0 194 -3 220 -17z"/>
<path d="M353 2053 c-4 -9 0 -37 9 -62 8 -25 23 -73 33 -106 10 -33 23 -76 30
-95 7 -19 20 -62 30 -95 10 -33 23 -78 30 -100 7 -22 21 -67 30 -100 10 -33
23 -76 30 -95 7 -19 20 -62 30 -95 37 -124 48 -161 60 -195 12 -35 26 -80 60
-195 9 -33 24 -75 31 -93 8 -18 14 -41 14 -52 0 -11 6 -34 14 -52 7 -18 22
-60 31 -93 41 -140 48 -162 61 -193 8 -18 14 -42 14 -53 0 -12 10 -23 26 -29
26 -10 513 -14 549 -4 14 4 25 23 38 67 10 34 25 77 33 95 8 18 14 41 14 52 0
11 6 34 14 52 8 18 22 60 31 93 10 33 23 76 30 95 10 30 20 62 52 169 8 29 27
-14 68 -154 10 -33 24 -78 30 -100 7 -22 21 -67 30 -100 10 -33 24 -75 31 -93
8 -18 14 -43 14 -55 1 -12 7 -33 15 -47 8 -14 14 -35 15 -46 0 -14 8 -24 23
-28 32 -8 550 -7 562 2 12 9 34 64 45 112 4 19 12 46 17 60 6 14 18 52 28 85
9 33 23 78 30 100 6 22 20 67 30 100 10 33 23 78 30 100 7 22 21 67 30 100 10
33 22 71 28 85 5 14 13 41 17 60 5 19 13 50 19 68 21 62 32 97 46 142 25 88
61 206 85 285 14 44 40 134 55 185 16 54 29 93 45 140 7 19 13 49 14 65 l1 30
-308 3 c-170 1 -315 -2 -324 -7 -9 -5 -22 -28 -29 -52 -6 -24 -19 -68 -27 -97
-41 -136 -48 -160 -61 -205 -7 -27 -20 -56 -29 -64 -13 -14 -16 -13 -21 8 -15
56 -40 137 -51 169 -7 19 -20 62 -30 95 -9 33 -25 80 -34 105 l-17 45 -352 3
-351 2 -16 -30 c-9 -17 -20 -49 -25 -73 -5 -23 -18 -73 -30 -112 -12 -38 -25
-88 -30 -110 -12 -57 -39 -117 -49 -111 -5 3 -11 18 -14 33 -5 25 -13 54 -63
218 -8 28 -19 67 -25 89 -5 21 -16 51 -25 67 l-15 29 -335 0 c-304 0 -335 -2
-341 -17z"/>
<path d="M3253 2033 c-9 -21 -20 -51 -24 -68 -4 -16 -15 -52 -23 -80 -9 -27
-22 -72 -30 -100 -16 -53 -27 -88 -46 -145 -7 -19 -16 -51 -20 -70 -8 -33 -13
-50 -40 -130 -7 -19 -15 -51 -20 -70 -4 -19 -12 -46 -17 -60 -6 -14 -18 -52
-28 -85 -9 -33 -23 -78 -30 -100 -6 -22 -20 -67 -30 -100 -9 -33 -23 -78 -30
-100 -7 -22 -20 -67 -30 -100 -10 -33 -24 -78 -30 -100 -7 -22 -21 -67 -30
-100 -19 -62 -30 -100 -61 -196 -29 -94 -47 -89 293 -89 164 0 303 4 309 8 16
11 37 52 45 92 6 32 17 66 40 128 l9 22 290 0 290 0 14 -32 c8 -18 25 -67 37
-108 35 -119 8 -110 339 -110 313 0 330 3 312 50 -6 14 -18 52 -27 85 -10 33
-24 75 -31 93 -8 18 -14 41 -14 52 0 11 -6 34 -14 52 -13 32 -24 67 -61 193
-10 33 -23 76 -30 95 -7 19 -20 62 -30 95 -37 124 -48 161 -60 195 -12 34 -23
71 -60 195 -10 33 -23 76 -30 95 -7 19 -20 62 -30 95 -38 126 -48 161 -60 195
-7 19 -20 62 -30 95 -24 83 -37 118 -48 133 -7 9 -115 12 -479 12 l-469 0 -16
-37z m529 -573 c18 -53 39 -122 63 -205 10 -33 24 -75 31 -93 16 -38 18 -92 4
-92 -5 -1 -62 -1 -125 -1 -63 0 -119 0 -125 1 -14 0 -12 33 4 77 7 21 21 65
31 98 10 33 23 76 30 95 10 30 20 62 52 169 5 20 17 4 35 -49z"/>
<path d="M4913 2064 c-18 -8 -19 -1694 -1 -1712 17 -17 639 -17 656 0 9 9 12
76 12 240 0 205 2 228 16 220 8 -5 102 -94 207 -199 194 -191 208 -203 332
-249 47 -18 90 -19 810 -19 755 0 760 0 820 22 202 73 325 213 357 408 12 75
3 244 -16 287 -8 18 -17 40 -21 48 -8 21 -25 49 -55 90 -29 42 -220 254 -232
258 -4 2 -8 15 -8 28 l0 24 413 0 c308 0 416 3 425 12 19 19 17 521 -2 537
-11 9 -163 11 -603 9 -577 -4 -589 -4 -644 -26 -190 -73 -289 -170 -350 -342
-26 -74 -26 -210 0 -288 47 -137 67 -168 204 -315 100 -108 111 -122 102 -137
-4 -6 -168 -10 -452 -10 -391 0 -449 2 -479 16 -45 21 -41 40 16 78 68 45 186
167 205 211 40 96 55 161 55 249 0 221 -110 395 -315 495 -144 70 -83 65 -795
68 -355 1 -651 0 -657 -3z m1103 -505 c37 -22 51 -65 40 -121 -13 -64 -31 -69
-258 -66 l-203 3 -3 89 c-2 49 -1 95 2 103 4 10 47 13 197 13 176 0 194 -2
225 -21z"/>
</g>
</svg>
