<?xml version="1.0" standalone="no"?>
<!DOCTYPE svg PUBLIC "-//W3C//DTD SVG 20010904//EN"
 "http://www.w3.org/TR/2001/REC-SVG-20010904/DTD/svg10.dtd">
<svg version="1.0" xmlns="http://www.w3.org/2000/svg"
 width="100.000000pt" height="42.000000pt" viewBox="0 0 100.000000 42.000000"
 preserveAspectRatio="xMidYMid meet">
<metadata>
Created by potrace 1.10, written by Peter Selinger 2001-2011
</metadata>
<g transform="translate(0.000000,42.000000) scale(0.100000,-0.100000)"
fill="#000000" stroke="none">
<path d="M40 413 c-36 -7 -56 -43 -24 -43 9 0 12 5 8 11 -5 9 14 10 69 7 248
-16 379 -248 141 -248 l-44 0 0 46 0 47 41 -6 c48 -6 59 -14 39 -28 -12 -8 -9
-9 10 -7 61 7 18 65 -53 70 -30 2 -37 7 -37 24 0 11 -6 28 -13 39 -13 16 -14
15 -20 -21 -6 -36 -11 -41 -49 -54 -62 -22 -63 -50 -4 -92 25 -17 48 -40 52
-50 6 -21 22 -24 29 -5 4 8 23 11 59 9 67 -5 121 19 142 61 61 116 -166 273
-346 240z m110 -223 l0 -40 -40 26 c-22 15 -40 28 -40 31 0 6 43 22 63 22 13
1 17 -7 17 -39z"/>
<path d="M411 371 c-20 -15 -23 -24 -17 -53 6 -35 7 -35 46 -28 69 13 105 66
61 90 -29 15 -63 12 -90 -9z m89 -24 c0 -14 -40 -37 -62 -37 -6 0 -1 11 12 25
26 27 50 33 50 12z"/>
<path d="M680 286 c0 -3 4 -15 9 -28 30 -82 19 -103 -19 -36 -21 38 -24 40
-37 23 -15 -22 -18 -111 -3 -120 6 -4 10 13 11 42 0 41 2 45 12 29 36 -55 49
-67 63 -55 19 15 18 83 -1 119 -13 25 -35 41 -35 26z"/>
<path d="M520 263 c-33 -6 -50 -21 -50 -44 0 -15 7 -19 33 -19 42 0 77 -10 77
-21 0 -14 -50 -30 -71 -24 -33 11 -20 24 18 18 26 -4 34 -3 29 5 -9 15 -73 16
-82 1 -11 -18 30 -50 64 -51 41 -1 64 19 60 51 -3 22 -10 27 -58 37 l-55 11
63 8 c34 4 62 12 62 16 0 5 -6 9 -12 9 -7 0 -22 2 -33 4 -11 2 -31 2 -45 -1z"/>
<path d="M773 263 c-27 -5 -30 -20 -6 -25 14 -3 15 -5 2 -18 -8 -8 -15 -32
-17 -53 -4 -46 15 -57 64 -33 41 19 36 41 -7 32 -22 -4 -29 -2 -29 9 0 10 10
15 31 15 20 0 29 4 26 13 -2 6 -11 11 -21 9 -9 -2 -16 4 -16 13 0 11 6 15 19
10 29 -9 54 4 40 21 -11 14 -40 16 -86 7z"/>
<path d="M895 246 c-29 -44 -52 -235 -30 -243 6 -2 17 24 23 57 11 51 16 60
35 60 52 1 95 76 68 119 -13 20 -45 5 -75 -37 -29 -41 -38 -20 -10 23 9 13 14
30 12 37 -3 8 -12 1 -23 -16z m85 -46 c0 -18 -45 -58 -55 -48 -6 5 38 68 48
68 4 0 7 -9 7 -20z"/>
<path d="M424 246 c-10 -25 1 -119 14 -124 9 -3 12 15 12 67 0 66 -12 93 -26
57z"/>
</g>
</svg>
