<?xml version="1.0" standalone="no"?>
<!DOCTYPE svg PUBLIC "-//W3C//DTD SVG 20010904//EN"
 "http://www.w3.org/TR/2001/REC-SVG-20010904/DTD/svg10.dtd">
<svg version="1.0" xmlns="http://www.w3.org/2000/svg"
 width="100.000000pt" height="40.000000pt" viewBox="0 0 100.000000 40.000000"
 preserveAspectRatio="xMidYMid meet">
<metadata>
Created by potrace 1.10, written by Peter Selinger 2001-2011
</metadata>
<g transform="translate(0.000000,40.000000) scale(0.100000,-0.100000)"
fill="#000000" stroke="none">
<path d="M17 382 c-14 -16 -17 -44 -17 -184 0 -145 2 -167 18 -180 25 -22 274
-24 292 -3 11 14 15 14 36 0 26 -17 129 -21 139 -5 4 6 13 7 23 1 23 -12 163
-11 185 1 13 7 23 6 30 -1 7 -7 57 -11 127 -11 101 0 119 3 133 18 24 27 21
67 -8 96 -24 24 -25 31 -25 133 0 155 2 153 -160 153 -94 0 -130 -3 -133 -12
-3 -10 -9 -10 -24 -1 -25 14 -212 17 -229 2 -8 -7 -14 -7 -19 1 -8 13 -98 13
-112 -1 -8 -8 -13 -8 -17 0 -10 15 -81 14 -107 -1 -17 -10 -23 -10 -26 0 -7
20 -87 15 -106 -6z m98 -59 c4 -27 10 -66 14 -88 7 -38 8 -35 20 48 l13 87 39
0 38 0 3 -152 3 -153 19 153 20 152 42 0 c48 0 43 13 68 -178 7 -56 16 -105
19 -108 3 -3 3 60 0 141 l-6 148 58 -5 c44 -4 63 -10 76 -26 22 -28 27 -28 21
3 -4 22 -1 25 26 25 33 0 35 -4 48 -135 8 -82 17 -64 29 58 l7 77 88 0 89 0
-1 -30 c-1 -26 -5 -30 -30 -30 -26 0 -28 -3 -28 -40 0 -37 2 -40 28 -40 25 0
29 -4 29 -30 0 -26 -4 -30 -29 -30 -26 0 -28 -3 -28 -40 0 -38 2 -40 30 -40
27 0 30 -3 30 -30 0 -30 0 -30 -60 -30 l-60 0 -1 148 -1 147 -21 -147 -22
-148 -36 0 -37 0 -12 73 c-6 39 -13 85 -16 100 l-6 28 -19 -38 c-20 -39 -18
-51 19 -151 3 -8 -6 -12 -27 -12 -33 0 -34 1 -51 68 -16 62 -34 54 -27 -13 l6
-55 -60 0 c-54 0 -59 2 -65 25 -4 18 -13 25 -30 25 -19 0 -24 -5 -24 -25 0
-24 -3 -25 -60 -25 l-60 0 -1 83 -2 82 -11 -80 c-8 -61 -15 -80 -28 -83 -12
-2 -18 6 -22 30 -24 140 -24 140 -25 51 l-1 -83 -30 0 -30 0 0 170 0 170 39 0
40 0 6 -47z m805 -93 l0 -140 25 0 c21 0 25 -5 25 -30 0 -30 -1 -30 -55 -30
l-55 0 0 170 0 170 30 0 30 0 0 -140z"/>
<path d="M470 255 c0 -56 8 -67 30 -40 23 28 8 95 -21 95 -5 0 -9 -25 -9 -55z"/>
<path d="M320 229 c0 -24 -3 -54 -6 -66 -5 -18 -2 -23 13 -23 18 0 19 5 12 61
-8 73 -19 89 -19 28z"/>
</g>
</svg>
