<?xml version="1.0" encoding="UTF-8" standalone="no"?>
<svg
   version="1.0"
   width="89.799248pt"
   height="26.548824pt"
   viewBox="0 0 673.49436 219.97597"
   preserveAspectRatio="xMidYMid"
   id="svg10"
   sodipodi:docname="Disney_princess_logo.svg"
   inkscape:version="1.3.2 (091e20e, 2023-11-25, custom)"
   xmlns:inkscape="http://www.inkscape.org/namespaces/inkscape"
   xmlns:sodipodi="http://sodipodi.sourceforge.net/DTD/sodipodi-0.dtd"
   xmlns="http://www.w3.org/2000/svg"
   xmlns:svg="http://www.w3.org/2000/svg">
  <defs
     id="defs10" />
  <sodipodi:namedview
     id="namedview10"
     pagecolor="#505050"
     bordercolor="#eeeeee"
     borderopacity="1"
     inkscape:showpageshadow="0"
     inkscape:pageopacity="0"
     inkscape:pagecheckerboard="0"
     inkscape:deskcolor="#505050"
     inkscape:document-units="pt"
     inkscape:zoom="12.383795"
     inkscape:cx="67.346074"
     inkscape:cy="16.553891"
     inkscape:window-width="1920"
     inkscape:window-height="1046"
     inkscape:window-x="-11"
     inkscape:window-y="-11"
     inkscape:window-maximized="1"
     inkscape:current-layer="g10" />
  <metadata
     id="metadata1">
Created by potrace 1.10, written by Peter Selinger 2001-2011
</metadata>
  <g
     transform="matrix(0.1,0,0,-0.1,-37.227353,222)"
     fill="#000000"
     stroke="none"
     id="g10">
    <path
       d="m 1098,2180 -33,-40 -100,-5 c -140,-6 -265,-20 -298,-34 -16,-6 -40,-11 -55,-11 -15,0 -36,-7 -46,-15 -11,-8 -29,-15 -40,-15 -17,0 -122,-48 -181,-83 -78,-46 -170,-129 -222,-201 -40,-53 -73,-114 -73,-132 0,-6 -7,-25 -15,-40 -20,-40 -21,-250 -1,-296 8,-18 17,-40 21,-48 21,-52 124,-160 152,-160 8,0 26,-8 40,-17 22,-14 49,-18 134,-18 88,0 110,3 126,18 11,9 24,17 29,17 20,0 96,82 110,120 3,8 12,30 20,48 19,44 18,152 -1,178 -8,10 -15,26 -15,34 0,27 -59,88 -107,111 -60,29 -156,30 -199,3 -36,-23 -84,-74 -84,-89 0,-25 14,-23 44,5 37,37 93,53 152,44 35,-5 55,-16 89,-51 l 45,-45 v -78 c 0,-57 -4,-81 -15,-90 -8,-7 -15,-18 -15,-24 0,-15 -55,-66 -97,-89 -38,-21 -111,-22 -137,-2 -11,8 -27,15 -36,15 -24,0 -105,84 -129,133 -26,53 -29,188 -7,234 8,15 23,46 33,68 10,22 23,45 29,50 5,6 22,27 37,47 27,37 137,128 155,128 5,0 15,7 22,15 7,8 20,15 30,15 10,0 23,7 30,15 7,8 22,15 34,15 11,0 30,7 40,15 11,8 31,15 45,15 14,1 37,7 51,15 14,8 43,14 66,15 22,0 63,6 90,14 69,20 161,28 169,16 4,-6 -3,-25 -14,-44 -12,-18 -21,-42 -21,-54 0,-11 -7,-33 -15,-48 -13,-25 -15,-128 -15,-729 -1,-588 -3,-704 -15,-725 -8,-14 -14,-37 -15,-51 0,-15 -7,-32 -15,-39 -8,-7 -15,-18 -15,-24 -1,-33 -97,-106 -173,-131 -51,-16 -63,-17 -90,-6 -18,7 -44,15 -58,18 -30,6 -87,56 -111,100 -23,39 -24,126 -3,143 8,7 15,18 15,24 0,16 48,59 83,74 54,23 116,11 165,-32 34,-30 31,-102 -5,-134 -24,-20 -35,-23 -75,-18 -77,8 -75,-36 2,-49 52,-9 98,9 135,53 27,31 30,43 29,98 0,42 -6,71 -19,91 -22,35 -65,72 -85,73 -8,0 -24,7 -34,15 -27,20 -107,19 -153,-2 -50,-23 -122,-80 -134,-107 -5,-11 -13,-28 -18,-36 -5,-8 -17,-42 -27,-74 -16,-57 -16,-62 1,-115 10,-31 25,-63 32,-72 7,-8 13,-20 13,-25 0,-21 90,-98 140,-120 8,-3 29,-12 47,-20 43,-19 189,-18 227,1 15,8 38,15 51,15 12,0 28,7 35,15 7,8 17,15 22,15 15,0 106,73 112,90 3,8 15,29 26,45 11,17 22,37 26,45 3,8 12,27 20,42 8,14 14,39 14,55 0,15 5,44 11,63 10,31 17,528 19,1423 v 157 h 28 c 15,0 45,-7 67,-15 22,-8 58,-14 80,-15 22,0 49,-7 59,-15 11,-8 32,-15 47,-15 15,0 30,-4 34,-9 3,-6 26,-20 50,-32 46,-23 167,-133 178,-162 3,-9 11,-17 16,-17 5,0 12,-11 15,-25 4,-14 11,-25 16,-25 6,0 10,-8 10,-19 0,-10 7,-24 15,-31 8,-7 15,-22 15,-34 0,-12 8,-32 17,-46 14,-20 17,-50 17,-175 1,-154 0,-162 -45,-245 -4,-8 -17,-33 -29,-56 -11,-22 -50,-69 -86,-105 -71,-67 -75,-71 -151,-108 -26,-13 -55,-27 -63,-31 -9,-4 -31,-11 -50,-14 -19,-4 -44,-11 -55,-16 -11,-4 -47,-12 -80,-17 -33,-4 -59,-12 -58,-18 3,-19 82,-29 136,-17 127,26 200,47 272,78 17,7 37,15 45,18 8,4 29,15 45,26 17,11 40,24 51,29 26,12 142,121 158,149 6,11 22,42 35,69 13,26 30,61 38,76 11,21 15,68 15,188 0,164 0,167 -47,274 -7,17 -16,37 -19,45 -7,17 -18,35 -58,96 -33,51 -136,154 -155,154 -7,0 -16,7 -19,15 -4,8 -12,15 -19,15 -7,0 -15,7 -19,15 -3,8 -14,15 -24,15 -11,0 -25,7 -32,15 -7,8 -20,15 -30,15 -10,0 -23,7 -30,15 -7,8 -23,15 -35,15 -13,0 -36,6 -52,14 -46,23 -114,38 -190,43 -63,4 -73,7 -73,23 0,10 5,22 10,25 16,10 12,55 -4,55 -8,0 -29,-18 -48,-40 z m -40,-168 c 2,-7 -3,-12 -12,-12 -9,0 -16,7 -16,16 0,17 22,14 28,-4 z"
       id="path1" />
    <path
       d="m 6900,1853 c -25,-2 -58,-10 -75,-18 -16,-7 -37,-16 -45,-20 -49,-20 -130,-92 -130,-117 0,-9 -7,-21 -15,-28 -12,-10 -15,-37 -15,-125 0,-88 3,-115 15,-125 8,-7 15,-18 15,-25 0,-19 156,-175 175,-175 4,0 24,-13 45,-30 21,-16 41,-30 45,-30 4,0 27,-13 52,-30 24,-16 47,-30 50,-30 3,0 22,-13 43,-30 21,-16 43,-30 48,-30 16,0 172,-157 172,-173 0,-8 7,-20 15,-27 8,-7 15,-23 15,-37 0,-13 7,-38 16,-55 25,-49 11,-182 -27,-248 -5,-8 -13,-24 -18,-36 -11,-25 -111,-114 -128,-114 -6,0 -24,-6 -40,-14 -49,-26 -168,-41 -212,-28 -21,7 -47,12 -58,12 -11,0 -26,7 -33,15 -7,8 -21,15 -31,15 -24,0 -129,105 -129,128 0,10 -7,27 -15,38 -22,29 -19,129 6,181 72,149 268,181 375,60 26,-29 28,-39 28,-102 0,-76 -13,-100 -74,-134 -35,-20 -126,-18 -148,3 -10,9 -23,16 -29,16 -6,0 -13,7 -17,15 -7,20 -36,19 -36,-2 0,-42 101,-103 171,-103 67,0 189,64 189,99 0,5 7,14 15,21 24,20 21,165 -5,214 -22,45 -67,87 -124,118 -35,19 -56,22 -151,21 -115,-1 -136,-7 -213,-61 -31,-22 -92,-104 -92,-123 0,-5 -7,-20 -16,-34 -32,-49 -7,-272 34,-298 6,-4 12,-14 12,-22 0,-17 107,-125 124,-125 8,0 19,-7 26,-15 7,-8 20,-15 30,-15 10,0 23,-6 29,-14 6,-7 33,-16 59,-19 26,-4 66,-10 89,-15 25,-5 61,-5 90,0 26,5 64,11 83,14 32,5 82,24 120,45 8,5 25,13 37,19 32,14 137,121 157,161 45,90 56,141 56,266 0,84 -4,133 -14,155 -8,18 -17,40 -20,48 -4,8 -15,29 -26,45 -11,17 -23,37 -27,45 -18,40 -280,270 -308,270 -4,0 -24,13 -44,28 -20,16 -43,31 -51,35 -32,12 -131,99 -140,122 -5,12 -14,26 -19,30 -19,11 -14,162 6,193 28,43 57,72 74,72 9,0 22,7 29,15 20,24 165,21 215,-5 64,-33 121,-86 155,-145 31,-53 49,-68 51,-42 4,28 -4,223 -8,230 -3,5 -14,-1 -24,-12 -24,-26 -49,-27 -80,-3 -13,10 -31,22 -39,25 -8,4 -22,11 -30,15 -67,39 -153,53 -260,45 z"
       id="path2" />
    <path
       d="m 6104,1685 c -10,-8 -26,-15 -34,-15 -8,0 -35,-23 -60,-49 -37,-40 -47,-59 -55,-107 -11,-65 1,-164 23,-186 6,-6 12,-16 12,-21 0,-19 75,-83 179,-152 57,-38 122,-91 144,-117 l 40,-48 1,-89 c 0,-71 -3,-94 -17,-109 -9,-10 -17,-24 -17,-30 0,-6 -20,-27 -44,-46 -41,-34 -47,-36 -119,-36 h -75 l -46,45 c -44,42 -46,47 -46,100 0,48 4,60 32,90 28,31 37,35 83,35 45,0 54,-3 73,-30 29,-39 28,-64 -4,-89 -28,-22 -64,-28 -64,-11 0,6 -9,10 -20,10 -11,0 -20,-6 -20,-13 0,-25 36,-47 77,-47 32,0 46,7 76,37 32,32 37,42 37,84 0,44 -4,52 -50,99 l -51,50 h -68 c -49,0 -72,-4 -81,-15 -7,-8 -18,-15 -24,-15 -13,0 -44,-33 -67,-70 -22,-35 -30,-99 -23,-167 7,-53 11,-61 68,-117 66,-65 107,-85 193,-93 51,-5 73,1 162,45 37,18 121,109 121,131 0,8 8,23 17,33 14,16 17,40 17,138 0,98 -3,122 -17,138 -9,10 -17,23 -17,28 0,22 -163,174 -187,174 -16,0 -124,102 -149,141 -40,65 -30,120 35,192 23,25 31,27 97,27 72,0 73,0 117,-43 41,-41 61,-69 86,-124 22,-48 29,-20 26,100 -2,67 -4,124 -4,127 -1,3 -9,-5 -19,-18 -18,-24 -31,-22 -82,7 -64,36 -82,41 -157,41 -54,0 -85,-5 -99,-15 z"
       id="path3" />
    <path
       d="m 4580,1625 c -14,-8 -35,-14 -46,-15 -12,0 -27,-7 -34,-15 -7,-8 -18,-15 -24,-15 -21,0 -123,-117 -146,-166 -12,-27 -29,-62 -38,-78 -22,-42 -22,-320 0,-361 9,-17 24,-48 34,-69 11,-22 26,-47 34,-57 55,-62 98,-103 115,-110 11,-5 27,-13 35,-18 67,-38 81,-41 181,-41 117,0 156,13 232,80 47,41 87,106 80,128 -6,15 -33,16 -33,1 0,-15 -71,-89 -86,-89 -6,0 -25,-7 -43,-16 -37,-19 -136,-15 -193,8 -47,18 -116,73 -129,101 -5,12 -21,42 -36,67 -25,43 -26,51 -27,195 -1,128 2,154 17,175 9,13 17,30 17,38 0,15 11,29 60,81 69,73 153,99 253,79 34,-6 69,-18 78,-25 8,-7 20,-13 26,-13 6,0 24,-15 41,-34 16,-19 38,-37 49,-40 17,-6 18,-1 15,67 -4,96 -7,104 -30,83 -21,-18 -58,-21 -67,-5 -4,5 -17,14 -28,20 -12,5 -29,13 -37,18 -65,37 -224,53 -270,26 z"
       id="path4" />
    <path
       d="m 4085,1611 c -38,-8 -65,-28 -89,-65 -17,-26 -18,-49 -15,-270 4,-213 2,-241 -12,-244 -10,-2 -22,12 -35,39 -10,23 -31,59 -46,80 -16,22 -28,42 -28,45 0,3 -13,23 -30,44 -16,21 -30,41 -30,45 0,4 -13,24 -28,44 -16,20 -32,44 -35,54 -4,9 -11,17 -17,17 -5,0 -10,5 -10,11 0,6 -13,28 -30,49 -16,21 -30,43 -30,49 0,6 -5,11 -10,11 -6,0 -15,11 -20,24 -22,59 -37,66 -142,66 -80,0 -98,-3 -98,-15 0,-8 6,-15 13,-15 8,0 21,-8 30,-18 15,-17 17,-60 17,-410 V 761 l -31,-17 c -52,-26 -22,-36 103,-35 115,2 152,12 106,30 l -25,9 -5,321 c -4,212 -9,326 -17,335 -14,16 -4,26 26,26 16,0 23,-6 23,-19 0,-11 7,-26 15,-35 8,-8 15,-18 15,-22 0,-4 26,-46 57,-93 32,-47 62,-94 68,-103 5,-9 37,-55 70,-103 33,-47 66,-97 73,-110 7,-14 17,-25 21,-25 5,0 12,-8 15,-17 8,-22 24,-48 56,-93 31,-42 43,-63 69,-117 21,-42 38,-60 48,-50 3,3 5,211 4,462 l -2,456 22,18 c 41,33 10,48 -66,32 z m -29,-588 c -7,-17 -27,-8 -21,10 2,7 7,26 11,42 l 8,30 4,-33 c 2,-19 1,-41 -2,-49 z"
       id="path5" />
    <path
       d="m 2060,1597 c 0,-4 14,-20 30,-34 l 30,-25 V 1149 761 l -30,-16 c -33,-17 -39,-35 -12,-36 189,-6 282,6 219,30 l -27,11 v 317 c 0,175 -3,342 -6,371 l -7,52 h 167 c 148,0 171,-2 206,-20 51,-26 90,-87 90,-139 0,-35 -7,-47 -50,-91 -28,-27 -59,-50 -68,-50 -9,0 -26,-7 -36,-15 -14,-11 -46,-15 -107,-15 -84,0 -114,-9 -86,-27 21,-13 47,-61 47,-86 0,-14 7,-30 15,-37 8,-7 15,-20 15,-30 0,-10 7,-23 15,-30 8,-7 15,-19 15,-26 0,-40 224,-304 258,-304 6,0 12,-3 14,-7 6,-14 67,-53 81,-53 8,0 20,-7 27,-15 7,-8 20,-15 29,-15 10,0 26,-7 37,-15 10,-8 33,-15 49,-15 17,0 39,-7 49,-15 11,-8 37,-15 57,-15 21,0 68,-7 106,-16 113,-27 301,0 450,63 17,7 34,13 37,13 3,0 35,18 71,40 36,22 68,40 70,40 7,0 95,88 95,95 0,15 -44,2 -68,-20 -15,-14 -32,-25 -39,-25 -6,0 -18,-6 -25,-12 -31,-30 -134,-70 -264,-103 -70,-17 -243,-20 -294,-4 -19,6 -60,14 -90,19 -64,9 -156,41 -210,72 -8,4 -22,11 -30,15 -62,27 -230,196 -230,231 0,5 -7,12 -15,16 -8,3 -15,14 -15,24 0,11 -7,25 -15,32 -8,7 -15,18 -15,25 0,7 -7,18 -15,25 -8,7 -15,21 -15,31 0,9 -7,24 -15,33 -25,25 -17,34 33,41 26,3 57,10 70,16 13,5 33,9 45,9 13,0 28,5 34,11 5,5 25,18 44,27 18,9 47,36 64,60 27,40 30,50 29,121 -1,61 -6,86 -24,117 -28,49 -110,114 -143,114 -13,0 -37,4 -53,9 -38,12 -594,20 -594,8 z"
       id="path6" />
    <path
       d="m 2975,1600 c -3,-5 5,-15 19,-22 l 26,-11 v -410 c 0,-400 0,-409 -20,-414 -11,-3 -20,-12 -20,-19 0,-11 22,-14 103,-15 56,-1 109,0 117,1 31,4 31,19 1,34 l -31,17 v 393 c 0,368 1,394 18,409 10,10 24,17 30,17 7,0 12,7 12,15 0,13 -20,15 -124,15 -72,0 -127,-4 -131,-10 z"
       id="path7" />
    <path
       d="m 5095,1600 c -3,-5 8,-16 25,-25 l 30,-16 V 1155 750 l -25,-6 c -25,-6 -35,-34 -12,-34 69,-3 682,2 686,5 2,3 -1,15 -7,28 -6,12 -13,38 -16,58 -4,19 -13,44 -21,55 -14,19 -15,18 -33,-5 -18,-23 -23,-23 -203,-26 -102,-2 -192,-5 -200,-7 -12,-3 -15,47 -19,330 -3,183 -2,336 2,340 4,4 97,6 208,4 l 201,-3 9,-24 c 5,-14 13,-25 17,-25 14,0 33,39 43,83 5,23 12,52 15,65 l 7,22 h -350 c -213,0 -353,-4 -357,-10 z"
       id="path8" />
    <path
       d="m 1400,1500 c 0,-60 -13,-98 -49,-142 -19,-25 -73,-23 -96,2 -24,27 -35,25 -35,-5 0,-14 4,-25 9,-25 5,0 13,-10 16,-22 4,-13 14,-38 23,-55 l 17,-33 h 143 c 127,0 143,2 148,18 3,9 19,44 35,77 41,84 38,95 -15,50 -18,-16 -41,-25 -62,-25 -26,0 -36,6 -53,36 -12,19 -21,45 -22,57 -1,34 -34,120 -47,125 -8,2 -12,-15 -12,-58 z"
       id="path9" />
    <path
       d="m 5464,1220 c -12,-5 -25,-13 -29,-19 -3,-6 -17,-11 -29,-11 -33,0 -53,-25 -36,-45 7,-8 22,-15 33,-15 11,0 29,-8 40,-17 24,-23 100,-22 125,0 9,8 31,17 47,19 24,2 30,8 30,28 0,19 -6,25 -32,31 -18,3 -39,11 -45,17 -19,15 -80,23 -104,12 z"
       id="path10" />
  </g>
</svg>
