<?xml version="1.0" standalone="no"?>
<!DOCTYPE svg PUBLIC "-//W3C//DTD SVG 20010904//EN"
 "http://www.w3.org/TR/2001/REC-SVG-20010904/DTD/svg10.dtd">
<svg version="1.0" xmlns="http://www.w3.org/2000/svg"
 width="300.000000pt" height="139.000000pt" viewBox="0 0 300.000000 139.000000"
 preserveAspectRatio="xMidYMid meet">
<metadata>
Created by potrace 1.10, written by Peter Selinger 2001-2011
</metadata>
<g transform="translate(0.000000,139.000000) scale(0.050000,-0.050000)"
fill="#000000" stroke="none">
<path d="M1580 2745 c-113 -20 -163 -125 -60 -125 60 0 81 28 35 47 -105 42
328 6 461 -38 670 -225 842 -731 266 -783 -210 -20 -222 -10 -222 164 0 170
-4 168 179 128 111 -23 145 -53 93 -82 -18 -10 -28 -27 -21 -37 19 -32 81 -21
118 20 79 87 -16 174 -226 207 l-143 23 0 82 c0 130 -50 180 -78 78 -12 -43
-22 -98 -22 -122 0 -35 -18 -47 -97 -66 -281 -68 -277 -244 9 -388 43 -21 67
-51 75 -92 14 -70 82 -86 102 -23 11 34 21 36 87 18 189 -52 469 29 559 163
251 373 -509 937 -1115 826z m365 -710 c-13 -151 -8 -145 -81 -107 -239 123
-222 219 39 230 l53 2 -11 -125z"/>
<path d="M2823 2606 c-95 -47 -131 -109 -113 -201 18 -98 46 -133 83 -103 15
13 46 18 69 12 59 -16 190 40 238 101 118 150 -81 288 -277 191z m12 -104
c-36 -32 -69 -55 -73 -50 -14 14 83 108 112 108 15 0 -3 -26 -39 -58z m245 -2
c0 -50 -108 -120 -186 -120 -50 0 -53 4 -33 41 50 94 219 154 219 79z"/>
<path d="M3656 2289 c-6 -6 6 -75 27 -153 59 -227 41 -263 -50 -101 -111 199
-139 208 -182 61 -46 -155 -42 -296 9 -296 36 0 40 13 40 119 0 158 22 163 97
23 91 -171 164 -174 195 -8 27 146 -76 416 -136 355z"/>
<path d="M2813 2147 c-31 -224 -18 -347 37 -347 50 0 78 303 38 408 -24 63
-63 32 -75 -61z"/>
<path d="M3068 2219 c-170 -51 -148 -164 35 -182 133 -13 217 -43 217 -77 0
-68 -215 -107 -289 -53 -58 42 -1 63 90 33 98 -33 169 -12 110 31 -110 81
-306 15 -242 -82 102 -156 390 -109 391 64 0 86 -41 112 -195 126 -235 20
-139 81 129 81 74 0 88 6 82 35 -8 41 -219 56 -328 24z"/>
<path d="M3950 2206 c-113 -15 -125 -25 -75 -66 43 -35 45 -100 3 -100 -10 0
-18 -22 -18 -49 0 -26 -8 -69 -17 -95 -47 -124 52 -182 193 -113 132 66 126
109 -14 100 -94 -6 -106 -2 -95 27 7 18 13 42 13 52 0 10 41 18 90 18 67 0 90
8 90 30 0 21 -21 30 -71 30 -64 0 -69 4 -49 40 17 32 42 40 121 40 104 0 120
16 68 69 -31 30 -102 35 -239 17z"/>
<path d="M4281 2128 c-70 -110 -89 -183 -65 -248 14 -36 6 -75 -32 -157 -71
-155 -80 -263 -26 -311 52 -47 46 -57 106 158 l50 179 82 17 c162 32 289 233
221 351 -53 94 -151 51 -280 -125 -76 -104 -81 -24 -6 98 27 44 49 91 49 105
0 51 -43 22 -99 -67z m299 -90 c0 -50 -122 -178 -169 -178 -42 0 -12 63 75
155 72 76 94 81 94 23z"/>
<path d="M887 1750 c-8 -21 -40 -30 -104 -30 -494 -2 -875 -358 -736 -686 133
-310 580 -189 491 134 -32 115 -176 169 -274 101 -64 -45 -54 -71 14 -37 150
75 274 -121 153 -243 -72 -72 -159 -65 -243 19 -207 207 66 536 486 585 112
13 112 13 96 -35 -10 -26 -22 -323 -29 -659 -12 -674 -14 -683 -143 -750 -160
-83 -340 109 -218 231 48 48 125 52 169 9 56 -57 24 -128 -58 -130 -37 0 -38
-2 -6 -20 81 -48 174 66 134 164 -67 162 -310 119 -359 -63 -69 -257 261 -416
490 -237 120 95 129 148 130 790 0 711 1 715 98 698 582 -103 598 -793 22
-964 l-90 -27 129 9 c701 45 702 936 1 1082 -84 18 -109 31 -104 56 7 41 -33
44 -49 3z"/>
<path d="M5467 1478 c-162 -47 -224 -263 -112 -394 30 -36 141 -121 245 -190
329 -216 378 -470 116 -606 -242 -126 -540 157 -350 333 54 51 195 53 238 4
106 -123 -6 -266 -150 -192 -61 32 -63 31 -35 -2 145 -174 400 58 260 236
-130 165 -430 76 -471 -140 -66 -355 500 -516 708 -201 145 219 62 447 -248
676 -192 143 -240 207 -216 286 50 165 249 169 376 7 l52 -65 0 97 c0 68 -7
94 -25 88 -14 -5 -65 13 -113 38 -92 49 -169 56 -275 25z"/>
<path d="M4908 1357 c-217 -58 -183 -302 64 -447 46 -27 93 -74 107 -108 67
-163 -96 -323 -225 -222 -91 72 -57 192 50 177 63 -9 65 -88 1 -85 -34 1 -39
-5 -22 -25 53 -64 148 13 126 101 -41 163 -289 95 -289 -79 0 -236 331 -284
438 -63 78 160 43 256 -148 409 -143 115 -170 198 -82 256 68 44 148 17 207
-70 l45 -67 0 98 c0 88 -5 98 -45 100 -25 2 -72 11 -105 22 -34 11 -86 12
-122 3z"/>
<path d="M3598 1275 c-303 -205 -183 -732 168 -735 93 0 234 94 234 157 0 23
-10 21 -45 -11 -140 -127 -355 -26 -386 182 -41 277 212 474 390 303 l61 -58
0 81 c0 71 -5 81 -38 72 -20 -5 -65 5 -99 22 -88 46 -205 40 -285 -13z"/>
<path d="M1660 1279 c0 -11 9 -19 20 -19 27 0 27 -633 0 -650 -45 -28 -14 -40
85 -32 58 4 94 12 80 16 -18 7 -25 87 -25 308 l0 298 140 0 c277 0 306 -228
35 -268 l-92 -14 69 -137 c216 -425 842 -561 1131 -246 54 58 47 56 -103 -25
-149 -81 -449 -88 -610 -14 -220 102 -426 404 -275 404 200 0 273 262 98 354
-71 38 -553 59 -553 25z"/>
<path d="M2410 940 l0 -360 89 0 c69 0 84 5 65 24 -30 30 -34 627 -4 646 44
27 15 50 -65 50 l-85 0 0 -360z"/>
<path d="M2720 1281 c0 -10 9 -24 20 -31 30 -19 26 -616 -4 -646 -19 -19 -4
-24 65 -24 l89 0 -5 105 c-13 296 -14 455 -2 450 18 -7 397 -578 397 -598 0
-9 8 -17 17 -17 9 0 17 156 17 346 0 190 7 366 15 390 12 37 6 44 -35 44 -78
0 -92 -39 -98 -266 l-6 -214 -158 240 c-157 237 -159 240 -235 240 -42 0 -77
-8 -77 -19z"/>
<path d="M4116 959 c4 -205 -1 -351 -13 -365 -15 -18 47 -23 261 -18 277 6
280 7 268 50 -6 24 -12 56 -12 70 0 20 -8 18 -32 -5 -25 -26 -66 -31 -185 -27
l-153 6 -6 265 -5 265 169 0 c109 0 175 -8 184 -24 16 -26 44 27 47 89 1 32
-24 35 -264 35 l-265 0 6 -341z"/>
<path d="M1122 1184 c-27 -95 -65 -122 -116 -81 -30 24 -32 22 -17 -13 8 -22
20 -56 26 -75 19 -68 237 -49 275 25 l31 59 -58 -11 c-58 -12 -86 24 -108 142
-6 28 -16 14 -33 -46z"/>
<path d="M4350 965 l-59 -31 63 -30 c64 -30 214 1 172 35 -55 46 -120 55 -176
26z"/>
</g>
</svg>
